<svg version="1.1" id="Layer_1" xmlns="http://www.w3.org/2000/svg" xmlns:xlink="http://www.w3.org/1999/xlink" x="0px" y="0px" width="308.7612359841165" height="304.915625" viewBox="0 0 1200 1200" enable-background="new 0 0 1200 1200" xml:space="preserve">
	<path fill="#121212" opacity="1.000000" stroke="none" d="
M585.000000,1201.000000 
	C391.500000,1201.000000 198.500000,1200.987427 5.500051,1201.093750 
	C1.750737,1201.095825 0.906084,1200.249023 0.907021,1196.500000 
	C1.006199,799.500000 1.006199,402.500000 0.907021,5.500023 
	C0.906084,1.750933 1.750933,0.906086 5.500023,0.907022 
	C402.500000,1.006185 799.500000,1.006186 1196.500000,0.907022 
	C1200.249023,0.906086 1201.093994,1.750932 1201.093140,5.500023 
	C1200.993896,402.500000 1200.993896,799.500000 1201.093140,1196.500000 
	C1201.093994,1200.249023 1200.249268,1201.095581 1196.500000,1201.093628 
	C992.833313,1200.988037 789.166687,1201.000000 585.000000,1201.000000 
z" />
	<path fill="#FFFFFF" opacity="1.000000" stroke="none" d="
M735.000000,1026.000000 
	C562.401917,1026.000000 390.303864,1026.000000 217.940735,1026.000000 
	C224.422653,1004.547363 230.770599,983.538391 237.118439,962.529358 
	C245.418533,935.059143 253.385986,907.481934 262.170929,880.167664 
	C266.071564,868.039795 272.421265,856.982605 281.076233,847.299683 
	C290.045380,837.265442 300.597870,829.538940 313.418610,823.251526 
	C310.884705,823.087646 309.200653,822.978760 307.170380,822.847534 
	C317.457275,807.689697 327.652649,792.682068 337.830902,777.662842 
	C343.347351,769.522644 348.733276,761.290955 354.413940,753.267517 
	C355.665802,751.499390 355.913147,750.854736 354.535706,748.858521 
	C338.781647,726.026489 323.239777,703.048096 307.656158,680.098633 
	C307.513062,679.887878 307.572266,679.539734 307.517822,679.100952 
	C380.476318,679.100952 453.414490,679.100952 526.749451,679.100952 
	C463.518494,634.490662 427.396027,574.014221 417.000061,497.688232 
	C417.000061,503.112488 417.000061,508.536743 417.000061,513.960999 
	C417.000061,519.459412 417.000061,524.957886 417.000061,531.440613 
	C413.203064,524.944214 410.953796,518.811096 408.802002,512.543640 
	C404.267853,499.337158 401.840820,485.715485 402.197357,471.901886 
	C402.552063,458.160461 404.362793,444.428040 413.916870,433.248505 
	C415.645996,431.225159 416.097626,428.804535 416.075958,426.030731 
	C415.930023,407.367676 416.275116,388.696686 415.852570,370.042053 
	C415.702179,363.402435 417.256378,357.512115 420.050171,351.789429 
	C426.251038,339.087830 431.903015,325.967010 444.514496,317.837982 
	C445.319977,317.318848 445.501099,315.858063 446.017487,314.858490 
	C447.645782,311.706787 449.739380,308.716431 450.863617,305.396362 
	C457.376190,286.163605 472.380188,273.356750 487.026886,261.365814 
	C497.807892,252.539627 511.698975,247.136063 525.505676,242.962692 
	C535.937683,239.809418 546.250793,236.264664 556.662476,233.041641 
	C558.535889,232.461716 558.396851,230.904037 558.987671,229.738205 
	C567.360168,213.217957 575.802490,196.730194 583.887817,180.069489 
	C585.745911,176.240631 587.373474,174.886612 591.104065,177.520935 
	C592.536926,178.532745 594.175964,179.316315 595.816833,179.959595 
	C609.158569,185.189911 619.807800,193.871277 629.826965,204.076859 
	C664.615234,239.512619 699.757507,274.607391 735.204895,309.383514 
	C741.611877,315.669189 744.523010,322.561523 746.080750,330.920044 
	C749.420776,348.841461 753.206543,366.679993 756.831482,384.548035 
	C757.579346,388.234680 756.435425,391.649658 755.449219,395.088348 
	C754.079651,399.863312 752.493774,404.582855 751.307800,409.401733 
	C750.338196,413.341614 752.444214,416.991669 752.992249,420.799469 
	C753.843018,426.710297 754.656250,432.626526 755.818054,438.557526 
	C755.927063,436.130249 756.036072,433.702972 756.162781,430.880402 
	C760.407776,432.449402 762.136902,436.004730 763.989502,439.284271 
	C768.602783,447.451019 770.522583,456.406372 770.975586,465.674194 
	C771.804199,482.623230 769.998413,499.218811 764.035400,515.242065 
	C762.039124,520.606262 759.828918,525.832520 756.088562,530.551514 
	C756.088562,521.530701 756.088562,512.509888 756.088562,503.489105 
	C751.026672,538.891296 739.062378,571.726990 720.377380,602.017517 
	C701.518738,632.589294 677.733582,658.639832 646.597229,678.781250 
	C729.791626,678.781250 812.112183,678.781250 895.224670,678.781250 
	C885.546265,693.090149 876.272522,706.778870 867.022766,720.483704 
	C860.892822,729.565918 854.923889,738.760925 848.602844,747.707581 
	C846.879517,750.146790 846.698914,751.563232 848.458618,754.132019 
	C863.126526,775.543884 877.786560,796.967773 891.948120,818.714233 
	C894.804626,823.100708 898.295593,826.325806 902.072632,829.623840 
	C917.240784,842.868530 925.202820,860.304871 931.634094,878.970032 
	C943.528198,913.490173 956.244385,947.726746 968.561279,982.101746 
	C973.738831,996.551636 978.771484,1011.053528 984.034790,1026.000000 
	C901.020691,1026.000000 818.260376,1026.000000 735.000000,1026.000000 
z" />
	<path fill="#121212" opacity="1.000000" stroke="none" d="
M506.997101,861.980957 
	C502.158356,857.591858 501.521912,851.995911 500.961700,846.268616 
	C500.218323,838.668823 499.201813,831.095764 498.243256,823.010071 
	C510.552765,823.010071 522.988342,822.991638 535.423706,823.026978 
	C537.653320,823.033325 537.674011,824.692200 538.073730,826.441772 
	C539.711121,833.609985 540.234802,840.984558 543.887878,847.738586 
	C557.958069,873.752380 571.700989,899.943115 585.579651,926.060608 
	C585.726929,926.337708 586.059387,926.516296 586.356506,926.787598 
	C587.835022,926.038940 588.557068,924.724731 589.321411,923.265625 
	C598.946289,904.891357 608.622559,886.543884 618.350159,868.223755 
	C621.817383,861.693909 625.154602,855.064087 629.099792,848.826965 
	C633.687012,841.574951 633.898193,833.213318 635.869385,825.311340 
	C636.354431,823.366882 636.853027,822.965454 638.604675,822.973755 
	C649.770142,823.026489 660.937134,823.086121 672.100830,822.936035 
	C674.680969,822.901306 675.293579,823.821106 675.011780,826.102234 
	C674.152588,833.057800 672.846863,840.004456 672.628723,846.983154 
	C672.201599,860.649658 661.398804,868.076477 654.531311,877.696716 
	C640.500671,897.351685 625.550354,916.348999 611.042908,935.665344 
	C602.971924,946.411621 595.029663,957.254517 586.910828,968.213806 
	C576.895386,954.854614 567.244568,941.936829 557.545349,929.055603 
	C545.061340,912.476013 532.546753,895.919495 520.027771,879.366333 
	C515.722168,873.673401 511.363708,868.020569 506.997101,861.980957 
z" />
	<path fill="#121212" opacity="1.000000" stroke="none" d="
M555.917908,722.217834 
	C554.942383,715.054749 553.953369,708.344604 553.061951,701.621582 
	C552.711609,698.979431 553.352844,696.896484 556.647095,697.011658 
	C559.654297,697.116821 563.126709,695.981201 563.968933,700.750671 
	C566.817932,716.884460 568.284790,733.245972 571.988098,749.239563 
	C572.354736,750.823242 572.241394,752.523254 573.832275,753.561157 
	C575.383057,753.168457 575.368103,751.712036 575.523987,750.747314 
	C577.423950,738.986084 579.187927,727.203003 581.014954,715.429871 
	C581.726379,710.845398 582.530640,706.275391 583.248657,701.691895 
	C583.731995,698.606628 585.539917,697.799194 588.517029,697.871582 
	C591.541870,697.945251 592.546143,699.405334 592.981201,702.057251 
	C595.607849,718.066589 598.309265,734.063660 600.970093,750.067444 
	C601.205383,751.483154 600.859802,753.562683 602.863770,753.499451 
	C604.598816,753.444702 604.735596,751.433594 604.951294,749.984314 
	C606.974426,736.392456 608.960083,722.794983 610.979004,709.202515 
	C611.246277,707.402588 611.650452,705.623474 611.972107,703.831238 
	C612.943970,698.414551 616.353149,696.411865 621.666626,698.087341 
	C623.197815,698.570190 623.708252,699.414001 623.492126,701.052612 
	C622.148743,711.234558 620.907410,721.429871 619.606628,731.617493 
	C617.763000,746.056885 615.911072,760.495178 614.036133,774.930481 
	C612.692505,785.275085 611.313965,795.615173 609.933167,805.954895 
	C609.429626,809.725464 606.722656,809.940796 603.666199,810.059814 
	C599.836548,810.208984 596.704773,809.885681 596.017456,805.145264 
	C594.758484,796.462097 593.400024,787.791931 591.960144,779.136841 
	C590.883728,772.666626 589.614075,766.228516 588.430481,759.776123 
	C588.012451,759.741333 587.594421,759.706482 587.176392,759.671692 
	C585.796692,766.129150 584.100403,772.538879 583.118164,779.056152 
	C581.910645,787.067932 580.247742,795.007629 579.594666,803.127075 
	C579.322510,806.511841 578.366211,810.436829 572.992676,810.130066 
	C567.515564,809.817444 566.591858,809.085022 565.880859,803.513794 
	C564.121277,789.727539 562.003967,775.986450 560.297791,762.194153 
	C558.670471,749.039734 557.381287,735.843506 555.917908,722.217834 
z" />
	<path fill="#121212" opacity="1.000000" stroke="none" d="
M754.288635,787.634644 
	C753.646606,792.807678 755.166748,797.571533 754.042297,802.357300 
	C753.547791,804.462219 754.842346,807.494324 751.396606,807.900391 
	C748.094116,808.289551 744.688660,808.449402 742.981567,804.422119 
	C739.045166,795.135010 734.868164,785.948608 731.020874,776.625610 
	C727.734314,768.661133 724.810547,760.547607 721.623657,752.540771 
	C721.129211,751.298401 720.863037,749.110779 718.914856,749.644226 
	C717.366028,750.068298 718.078796,751.984863 718.136108,753.197327 
	C718.713684,765.413635 717.674927,777.629700 718.583252,789.884949 
	C718.961426,794.987732 718.439209,800.470520 717.908752,805.747864 
	C717.380005,811.008301 713.235107,809.753418 709.883972,810.034973 
	C706.540405,810.315979 704.339417,808.496948 704.503540,805.641724 
	C705.333252,791.203613 704.244873,776.794678 704.307434,762.394470 
	C704.387085,744.075134 704.352295,725.699707 705.870483,707.396667 
	C706.021362,705.577332 706.208435,703.669128 705.832886,701.919312 
	C705.254761,699.224792 704.969666,696.604004 708.356873,696.194641 
	C711.617859,695.800659 715.654236,694.642700 717.351135,699.123962 
	C719.346436,704.393311 721.201477,709.725403 722.870178,715.106934 
	C727.194885,729.054016 731.976562,742.832581 737.728210,756.258057 
	C738.539551,758.151794 738.978027,760.397583 741.013245,761.608154 
	C742.616760,760.686462 742.054138,759.182251 742.011780,757.992126 
	C741.663696,748.217224 741.609009,738.411011 741.414185,728.657837 
	C741.216797,718.779480 741.670410,708.761230 741.944458,698.807495 
	C741.972168,697.801086 742.026672,696.479553 743.144043,696.343201 
	C745.605042,696.043030 748.109375,696.079590 750.597046,696.021301 
	C754.504700,695.929871 753.770691,699.003357 754.210815,701.318420 
	C755.716736,709.238281 755.348694,717.273376 754.519287,725.135193 
	C754.086121,729.240906 755.093750,733.016846 754.963989,736.973328 
	C754.517456,750.591248 754.293579,764.217041 754.065613,777.841187 
	C754.013306,780.965515 754.283264,784.095215 754.288635,787.634644 
z" />
	<path fill="#121212" opacity="1.000000" stroke="none" d="
M479.070862,789.912964 
	C478.987030,786.719238 479.766449,784.087341 479.193176,781.150879 
	C477.749451,773.756287 478.037598,773.700012 470.417114,772.835449 
	C465.694214,772.299622 463.141327,774.233765 463.035950,778.980835 
	C462.831604,788.187439 462.086914,797.390564 462.683929,806.610474 
	C462.733826,807.381165 462.641174,808.583862 462.162933,808.898071 
	C458.831329,811.086487 455.056854,810.047119 451.528137,809.746582 
	C449.080353,809.538208 449.106079,806.893494 449.093140,804.915161 
	C449.022400,794.088989 448.892883,783.261047 449.015381,772.436340 
	C449.283875,748.713013 449.779694,724.992004 449.961273,701.268372 
	C449.994080,696.986633 451.617493,695.766846 455.615173,695.923523 
	C459.518188,696.076538 463.061523,695.877502 463.026245,701.401917 
	C462.921448,717.840576 463.037476,734.280640 462.939667,750.719421 
	C462.918640,754.248596 463.925781,757.140198 467.250824,758.397644 
	C470.413971,759.593872 473.793243,759.612610 476.776825,757.500244 
	C478.803589,756.065430 479.883728,754.068665 479.893738,751.556824 
	C479.956604,735.785156 480.001587,720.013428 480.090363,704.241943 
	C480.096802,703.096619 480.433289,701.956421 480.564484,700.807922 
	C481.253326,694.779358 485.772705,695.903198 489.628723,696.056091 
	C493.751801,696.219482 492.971924,699.464966 492.979919,702.008484 
	C493.028015,717.292053 492.918671,732.576599 493.057526,747.859131 
	C493.149506,757.981628 494.144135,768.128174 493.671143,778.214050 
	C493.237305,787.464844 493.263580,796.706482 492.997101,805.949341 
	C492.805939,812.580078 487.260712,809.523010 484.242065,810.408875 
	C481.220367,811.295715 479.824921,808.945129 479.861755,805.563049 
	C479.916962,800.491089 479.365875,795.412476 479.070862,789.912964 
z" />
	<path fill="#121212" opacity="1.000000" stroke="none" d="
M677.337891,757.475586 
	C679.936401,772.935303 682.517822,787.953552 684.782959,803.019409 
	C685.188721,805.718201 686.658875,809.639404 681.254639,810.046936 
	C673.529419,810.629333 672.916931,810.299683 671.923401,804.219788 
	C671.229675,799.974670 670.376892,795.729736 669.206360,791.594849 
	C667.772522,786.529602 664.129089,784.556396 658.912781,784.976685 
	C653.297791,785.429016 649.356812,788.104248 648.195068,792.914001 
	C647.145874,797.258179 646.490051,801.698364 645.407898,806.033142 
	C644.549377,809.471802 636.603699,811.839172 633.856873,809.571045 
	C632.485107,808.438293 632.975586,806.779846 633.188416,805.356323 
	C635.415771,790.456970 637.658386,775.559631 639.980591,760.674866 
	C642.581909,744.000732 645.240173,727.335327 647.950500,710.678650 
	C648.375549,708.066467 649.481567,705.553345 649.794312,702.937256 
	C650.434265,697.583069 653.162048,695.635254 658.545593,695.900513 
	C666.148315,696.275146 666.439697,696.016418 668.102356,703.726196 
	C671.906311,721.365417 675.718811,739.012634 677.337891,757.475586 
z" />
	<path fill="121212" opacity="1.000000" stroke="none" d="
M806.299438,808.671631 
	C800.140381,813.195312 793.654480,813.313660 787.613342,810.133789 
	C781.387085,806.856689 778.418152,801.098328 777.878540,793.809692 
	C776.801697,779.261475 778.436829,764.738403 777.809814,750.226257 
	C777.576965,744.835815 777.356262,739.376831 777.381042,734.043396 
	C777.431458,723.203552 777.526855,712.036987 785.299438,703.004150 
	C790.201416,697.307373 799.301636,695.148560 807.145386,697.923645 
	C813.117188,700.036621 817.776611,707.036194 817.978699,714.233093 
	C818.039429,716.396973 818.069275,718.562500 818.067871,720.727234 
	C818.064087,726.308167 816.586792,727.927917 811.159973,727.862488 
	C806.441162,727.805603 806.372375,724.149414 806.074768,720.789795 
	C805.986694,719.796021 806.077515,718.779297 805.918640,717.800293 
	C805.356323,714.335388 804.289185,711.120911 800.014648,711.029602 
	C796.134949,710.946838 793.416138,712.898560 791.971436,716.546570 
	C791.096497,718.755859 790.931152,721.062683 790.938110,723.407532 
	C790.997253,743.390625 790.996887,763.374084 791.137939,783.356567 
	C791.163574,786.987427 791.704224,790.619568 792.095764,794.241577 
	C792.482544,797.818481 794.875854,799.814514 798.142517,799.576782 
	C801.218628,799.352966 804.568970,798.299988 804.949219,794.234253 
	C805.442627,788.958984 806.539307,783.722351 806.062134,778.377686 
	C805.686157,774.166565 805.122314,770.244446 799.257080,770.896362 
	C796.583252,771.193604 795.892456,769.310059 795.975281,767.009338 
	C796.073120,764.291504 795.070312,760.693176 799.136902,760.283813 
	C803.917786,759.802551 808.790466,759.865479 813.596191,760.150696 
	C816.081238,760.298218 817.775391,762.166626 818.018433,764.840515 
	C818.373901,768.750488 819.245972,772.739868 818.808350,776.570984 
	C817.688843,786.371887 817.890808,796.140137 818.520386,805.923218 
	C818.653442,807.991211 817.866333,809.508850 816.169434,809.672791 
	C812.993164,809.979675 809.566467,811.215393 806.299438,808.671631 
z" />
	<path fill="#121212" opacity="1.000000" stroke="none" d="
M397.581604,713.633972 
	C392.608276,721.271790 394.046967,734.663513 403.200897,741.607727 
	C409.098358,746.081604 415.457489,750.004517 419.996490,756.266235 
	C425.934692,764.458313 427.487793,773.600525 426.586853,783.140747 
	C426.131836,787.959229 426.429138,792.980957 423.852356,797.688232 
	C419.087128,806.393433 411.643616,811.879578 404.561737,810.871277 
	C393.053711,809.232849 386.315033,803.091431 384.031677,792.258301 
	C383.064453,787.669495 382.906525,783.042664 382.901886,778.374268 
	C382.898315,774.792419 383.523987,772.171631 387.938293,771.997070 
	C392.368744,771.821899 394.613403,774.013184 394.829132,778.075317 
	C395.015564,781.586121 395.459869,784.995789 396.274445,788.402588 
	C397.359314,792.939880 400.004456,794.945679 404.778473,795.118774 
	C409.923859,795.305298 411.646271,791.711792 412.588654,788.194336 
	C414.932526,779.446350 414.417755,770.871582 409.082062,763.016968 
	C406.277527,758.888428 402.215973,756.187378 398.205322,753.705444 
	C380.545929,742.777161 379.785492,725.353821 385.667572,708.456665 
	C389.284180,698.067566 399.630341,692.498901 411.678711,696.223206 
	C414.994843,697.248352 417.391174,700.190430 419.143982,703.281372 
	C421.511444,707.456116 421.918457,712.155640 421.846985,716.781067 
	C421.772888,721.577576 419.212646,723.839172 414.731873,723.928223 
	C409.773010,724.026733 409.260132,720.502441 409.078308,716.842590 
	C408.942352,714.105896 408.890350,711.111206 405.838837,710.199280 
	C402.656860,709.248352 399.478821,709.696716 397.581604,713.633972 
z" />
	<path fill="#121212" opacity="1.000000" stroke="none" d="
M517.079651,711.255371 
	C516.964844,707.359131 518.199402,704.079834 517.389038,700.460205 
	C516.846008,698.034729 518.721313,695.544739 521.995117,696.043152 
	C525.000671,696.500732 529.363342,693.952332 530.142517,699.775757 
	C530.610474,703.273132 529.970398,706.688416 530.101257,710.138489 
	C531.289856,741.465576 530.762146,772.808289 531.085510,804.142822 
	C531.144897,809.900146 528.408447,810.036194 524.068115,810.122009 
	C519.642578,810.209412 518.138123,808.964600 517.787598,804.285400 
	C516.684998,789.567383 517.532288,774.842163 517.244019,760.130737 
	C516.928223,744.015442 517.212036,727.860352 517.079651,711.255371 
z" />
	<path fill="#FCFDFE" opacity="1.000000" stroke="none" d="
M654.402710,769.665405 
	C650.322388,766.442871 651.794312,762.218384 652.175171,758.722046 
	C653.283081,748.551392 654.521240,738.365845 656.909973,728.377319 
	C657.220886,727.077271 657.236572,725.489014 658.963135,725.456482 
	C660.726929,725.423218 660.842896,727.008789 661.038025,728.327271 
	C662.705933,739.594849 664.759277,750.823853 665.899658,762.144775 
	C666.716370,770.251709 662.583557,772.771912 654.402710,769.665405 
z" />
</svg>
